<svg xmlns="http://www.w3.org/2000/svg" version="1.1" xmlns:xlink="http://www.w3.org/1999/xlink" xmlns:svgjs="http://svgjs.dev/svgjs" width="100%" height="100%" viewBox="0 0 1000 600"><rect width="1000" height="600" x="0" y="0" fill="#004857"/><g><circle r="166.66666666666666" cx="440.70524088541663" cy="462.92744738019564" fill="#008dc0" transform="matrix(0.45614020320809895,0,0,0.45614020320809895,0,88.84018224528658)"/><path d="M443.9486236861894 537.9274483215796L437.55108349622344 537.9274483215796L381.60980183512515 427.97902505681475L381.60980183512515 537.9274483215796L360.1557251980763 537.9274483215796L360.1557251980763 387.92744786753906L383.57369789344034 387.92744786753906L440.7052195898811 500.8812272215438L497.9260092889725 387.92744786753906L521.2547139816859 387.92744786753906L521.2547139816859 537.9274483215796L499.91966134817125 537.9274483215796L499.91966134817125 427.97902505681475L443.9486236861894 537.9274483215796Z " fill="#ffffff" transform="matrix(0.45614020320809895,0,0,0.45614020320809895,0,88.84018224528658)"/><path d="M772.1552739920658 537.9274483215796L765.9366084269977 537.9274483215796L711.5594397650076 431.0531726800617L711.5594397650076 537.9274483215796L690.7052171026166 537.9274483215796L690.7052171026166 392.12143384014746L713.468425473354 392.12143384014746L769.0025551707057 501.91703609595316L824.6234569457094 392.12143384014746L847.2998932387948 392.12143384014746L847.2998932387948 537.9274483215796L826.56136667994 537.9274483215796L826.56136667994 431.0531726800617L772.1552739920658 537.9274483215796ZM882.7896729985084 517.8830983839417L882.7896729985084 490.6366660011786Q882.7896729985084 486.4716062738772 884.3515703962465 482.85610303837257Q885.9423918198686 479.2405998028679 888.6323262270841 476.5217413697684Q891.3222606342995 473.7739589107848 894.9956119215723 472.18313748716275Q898.6400391829609 470.62124008942476 902.7183268326103 470.62124008942476L902.7183268326103 470.62124008942476L954.3766370615008 470.62124008942476L954.3766370615008 449.6513213234977L888.9794145376925 449.6513213234977L888.9794145376925 429.6358954117439L954.3766370615008 429.6358954117439Q958.5416967888023 429.6358954117439 962.2150480760749 431.1977928094819Q965.8594753374637 432.78861423310394 968.5494097446792 435.4785486403194Q971.2393441518946 438.1684830475349 972.8301655755167 441.84183433480763Q974.3920629732547 445.4862615961963 974.3920629732547 449.6513213234977L974.3920629732547 449.6513213234977L974.3920629732547 537.9274483215796L954.3766370615008 537.9274483215796L954.3766370615008 519.618539936984Q954.0584727767764 523.3786633019089 952.3519552496183 526.7338503044572Q950.616513696576 530.0890373070055 947.9265792893606 532.5765035330327Q945.2077208562611 535.092893784944 941.7657617760606 536.5101710532617Q938.2948786699761 537.9274483215796 934.4479832273992 537.9274483215796L934.4479832273992 537.9274483215796L902.7183268326103 537.9274483215796Q898.6400391829609 537.9274483215796 894.9956119215723 536.3655509238416Q891.3222606342995 534.7747295002196 888.6323262270841 532.084795093004Q885.9423918198686 529.3948606857887 884.3515703962465 525.7215093985159Q882.7896729985084 522.0770821371271 882.7896729985084 517.8830983839417L882.7896729985084 517.8830983839417ZM902.7183268326103 490.6366660011786L902.7183268326103 517.8830983839417L954.3766370615008 517.8830983839417L954.3766370615008 490.6366660011786L902.7183268326103 490.6366660011786ZM1001.4649512007136 449.6513213234977L1001.4649512007136 429.6358954117439L1027.9015108587237 429.6358954117439L1027.9015108587237 396.2864935674488L1047.9169367704776 396.2864935674488L1047.9169367704776 429.6358954117439L1083.5224126337275 429.6358954117439L1083.5224126337275 449.6513213234977L1047.9169367704776 449.6513213234977L1047.9169367704776 517.8830983839417L1083.5224126337275 517.8830983839417L1083.5224126337275 537.9274483215796L1047.9169367704776 537.9274483215796Q1043.8675731467124 537.9274483215796 1040.1942218594395 536.3655509238416Q1036.549794598051 534.7747295002196 1033.8020121390673 532.084795093004Q1031.0542296800838 529.3948606857887 1029.4634082564617 525.7215093985159Q1027.9015108587237 522.0770821371271 1027.9015108587237 517.8830983839417L1027.9015108587237 517.8830983839417L1027.9015108587237 449.6513213234977L1001.4649512007136 449.6513213234977ZM1212.6681882059543 449.6513213234977L1212.6681882059543 537.9274483215796L1192.6238382683164 537.9274483215796L1192.6238382683164 449.6513213234977L1136.8004683121242 449.6513213234977L1136.8004683121242 537.9274483215796L1116.8718144780225 537.9274483215796L1116.8718144780225 387.92745008696204L1136.8004683121242 387.92745008696204L1136.8004683121242 448.75467652109256Q1137.0029364933125 444.79208497497945 1138.6226819428186 441.26335381712687Q1140.2424273923248 437.76354668515836 1142.9612858254243 435.160384355595Q1145.6512202326396 432.58614605191565 1149.2088754163763 431.1110207318298Q1152.766530600113 429.6358954117439 1156.844818249762 429.6358954117439L1156.844818249762 429.6358954117439L1192.6238382683164 429.6358954117439Q1196.7888979956178 429.6358954117439 1200.4622492828903 431.1977928094819Q1204.106676544279 432.78861423310394 1206.7966109514946 435.4785486403194Q1209.515469384594 438.1684830475349 1211.077366782332 441.84183433480763Q1212.6681882059543 445.4862615961963 1212.6681882059543 449.6513213234977L1212.6681882059543 449.6513213234977ZM1337.6199800249956 449.6513213234977L1337.6199800249956 493.99185300372693L1265.946243884351 493.99185300372693L1265.946243884351 517.8830983839417L1337.6199800249956 517.8830983839417L1337.6199800249956 537.9274483215796L1265.946243884351 537.9274483215796Q1261.8679562347015 537.9274483215796 1258.223528973313 536.3655509238416Q1254.5501776860401 534.7747295002196 1251.8602432788248 532.084795093004Q1249.1703088716092 529.3948606857887 1247.5794874479873 525.7215093985159Q1246.017590050249 522.0770821371271 1246.017590050249 517.8830983839417L1246.017590050249 517.8830983839417L1246.017590050249 449.6513213234977Q1246.017590050249 445.4862615961963 1247.5794874479873 441.84183433480763Q1249.1703088716092 438.1684830475349 1251.8602432788248 435.4785486403194Q1254.5501776860401 432.78861423310394 1258.223528973313 431.1977928094819Q1261.8679562347015 429.6358954117439 1265.946243884351 429.6358954117439L1265.946243884351 429.6358954117439L1317.6045541132416 429.6358954117439Q1321.7696138405431 429.6358954117439 1325.4140411019316 431.1977928094819Q1329.0873923892045 432.78861423310394 1331.7773267964199 435.4785486403194Q1334.4672612036354 438.1684830475349 1336.0580826272574 441.84183433480763Q1337.6199800249956 445.4862615961963 1337.6199800249956 449.6513213234977L1337.6199800249956 449.6513213234977ZM1317.6045541132416 449.6513213234977L1265.946243884351 449.6513213234977L1265.946243884351 473.9764270919731L1317.6045541132416 473.9764270919731L1317.6045541132416 449.6513213234977ZM1370.9693818692904 517.8830983839417L1370.9693818692904 429.6358954117439L1390.8980357033922 429.6358954117439L1390.8980357033922 517.8830983839417L1446.7503296854682 517.8830983839417L1446.7503296854682 429.6358954117439L1466.7657555972219 429.6358954117439L1466.7657555972219 537.9274483215796L1446.7503296854682 537.9274483215796L1446.7503296854682 519.618539936984Q1446.4321654007438 523.3786633019089 1444.6967238477014 526.7338503044572Q1442.9612822946592 530.0890373070055 1440.2713478874439 532.5765035330327Q1437.5814134802285 535.092893784944 1434.139454400028 536.5101710532617Q1430.6685712939434 537.9274483215796 1426.7927518254824 537.9274483215796L1426.7927518254824 537.9274483215796L1390.8980357033922 537.9274483215796Q1386.8486720796268 537.9274483215796 1383.1753207923541 536.3655509238416Q1379.5308935309654 534.7747295002196 1376.84095912375 532.084795093004Q1374.1221006906503 529.3948606857887 1372.5602032929125 525.7215093985159Q1370.9693818692904 522.0770821371271 1370.9693818692904 517.8830983839417L1370.9693818692904 517.8830983839417ZM1497.9747795260982 517.8830983839417L1565.5123799653254 517.8830983839417L1565.5123799653254 492.77704391659734L1518.0191294637361 492.77704391659734Q1513.854069736435 492.77704391659734 1510.1807184491622 491.21514651885934Q1506.5362911877733 489.6243250952373 1503.846356780558 486.93439068802184Q1501.1274983474584 484.24445628080633 1499.5656009497202 480.5711049935336Q1497.9747795260982 476.92667773214487 1497.9747795260982 472.7326939789595L1497.9747795260982 472.7326939789595L1497.9747795260982 449.6513213234977Q1497.9747795260982 445.4862615961963 1499.5656009497202 441.84183433480763Q1501.1274983474584 438.1684830475349 1503.846356780558 435.4785486403194Q1506.5362911877733 432.78861423310394 1510.1807184491622 431.1977928094819Q1513.854069736435 429.6358954117439 1518.0191294637361 429.6358954117439L1518.0191294637361 429.6358954117439L1581.3627461497779 429.6358954117439L1581.3627461497779 449.6513213234977L1518.0191294637361 449.6513213234977L1518.0191294637361 472.7326939789595L1565.5123799653254 472.7326939789595Q1569.6774396926269 472.7326939789595 1573.2929429281317 474.32351540258156Q1576.9084461636362 475.88541280031956 1579.6273045967357 478.60427123341907Q1582.3750870557192 481.2942056406346 1583.9659084793411 484.93863290202324Q1585.5278058770791 488.611984189296 1585.5278058770791 492.77704391659734L1585.5278058770791 492.77704391659734L1585.5278058770791 517.8830983839417Q1585.5278058770791 522.0770821371271 1583.9659084793411 525.7215093985159Q1582.3750870557192 529.3948606857887 1579.6273045967357 532.084795093004Q1576.9084461636362 534.7747295002196 1573.2929429281317 536.3655509238416Q1569.6774396926269 537.9274483215796 1565.5123799653254 537.9274483215796L1565.5123799653254 537.9274483215796L1497.9747795260982 537.9274483215796L1497.9747795260982 517.8830983839417ZM1616.7657538318394 537.9274483215796L1616.7657538318394 507.5282971174564L1647.1649050359629 507.5282971174564L1647.1649050359629 537.9274483215796L1616.7657538318394 537.9274483215796ZM1807.5197045370655 412.94673247665435L1807.5197045370655 517.0732256591887Q1807.5197045370655 521.3539814900262 1805.8999590875596 525.1719529067192Q1804.2512896121693 528.9899243234121 1801.4167350755338 531.8244788600477Q1798.5821805388982 534.6590333966834 1794.764209122205 536.3077028720735Q1790.9462377055124 537.9274483215796 1786.6654818746747 537.9274483215796L1786.6654818746747 537.9274483215796L1703.3932113545313 537.9274483215796Q1699.1124555236938 537.9274483215796 1695.294484107001 536.3077028720735Q1691.505436716192 534.6590333966834 1688.6419581536725 531.8244788600477Q1685.8074036170367 528.9899243234121 1684.1876581675306 525.1719529067192Q1682.5389886921405 521.3539814900262 1682.5389886921405 517.0732256591887L1682.5389886921405 517.0732256591887L1682.5389886921405 412.94673247665435Q1682.5389886921405 408.69490067170085 1684.1876581675306 404.8769292550079Q1685.8074036170367 401.058957838315 1688.6419581536725 398.2533273275634Q1691.505436716192 395.4766208426958 1695.294484107001 393.7990273414216Q1699.1124555236938 392.12143384014746 1703.3932113545313 392.12143384014746L1703.3932113545313 392.12143384014746L1786.6654818746747 392.12143384014746Q1790.9462377055124 392.12143384014746 1794.764209122205 393.7990273414216Q1798.5821805388982 395.4766208426958 1801.4167350755338 398.2533273275634Q1804.2512896121693 401.058957838315 1805.8999590875596 404.8769292550079Q1807.5197045370655 408.69490067170085 1807.5197045370655 412.94673247665435L1807.5197045370655 412.94673247665435ZM1786.6654818746747 412.94673247665435L1703.3932113545313 412.94673247665435L1703.3932113545313 517.0732256591887L1786.6654818746747 517.0732256591887L1786.6654818746747 412.94673247665435ZM1842.8937881932434 387.92745008696204L1862.822442027345 387.92745008696204L1862.822442027345 537.9274483215796L1842.8937881932434 537.9274483215796L1842.8937881932434 387.92745008696204ZM1897.2131088034657 429.6358954117439L1917.2285347152192 429.6358954117439L1917.2285347152192 537.9274483215796L1897.2131088034657 537.9274483215796L1897.2131088034657 429.6358954117439ZM1896.2007678975242 408.781672749353L1896.2007678975242 387.92745008696204L1918.2697996470447 387.92745008696204L1918.2697996470447 408.781672749353L1896.2007678975242 408.781672749353Z " fill="#ffffff" transform="matrix(0.45614020320809895,0,0,0.45614020320809895,0,88.84018224528658)"/></g></svg>